<svg width="300" height="230" viewBox="0 0 300 230" fill="none" xmlns="http://www.w3.org/2000/svg">
    <g clip-path="url(#clip0)">
        <rect x="-82" y="72" width="243" height="4" rx="2" fill="#161718" fill-opacity="0.35"/>
        <rect x="-82" y="84" width="243" height="4" rx="2" fill="#161718" fill-opacity="0.35"/>
        <rect x="-82" y="96" width="243" height="4" rx="2" fill="#161718" fill-opacity="0.35"/>
        <rect x="-82" y="36" width="243" height="4" rx="2" fill="#161718" fill-opacity="0.35"/>
        <rect x="-82" y="48" width="243" height="4" rx="2" fill="#161718" fill-opacity="0.35"/>
        <rect x="-82" y="60" width="243" height="4" rx="2" fill="#161718" fill-opacity="0.35"/>
        <rect x="68" y="120" width="100" height="100" rx="14" fill="#161718" fill-opacity="0.35"/>
        <rect x="10" y="120" width="100" height="100" rx="14" fill="#161718" fill-opacity="0.35"/>
        <path d="M223 72L266.301 97V147L223 172L179.699 147V97L223 72Z" fill="#161718" fill-opacity="0.35"/>
        <path d="M240 120L283.301 145V195L240 220L196.699 195V145L240 120Z" fill="#161718" fill-opacity="0.35"/>
    </g>
    <defs>
        <clipPath id="clip0">
            <rect width="300" height="230" fill="white"/>
        </clipPath>
    </defs>
</svg>
