<svg width="300" height="230" viewBox="0 0 300 230" fill="none" xmlns="http://www.w3.org/2000/svg">
    <g clip-path="url(#clip0)">
        <path fill-rule="evenodd" clip-rule="evenodd" d="M0 300H150L0 150V300Z" fill="#161718" fill-opacity="0.35"/>
        <path d="M150 150H0L150 300V150Z" fill="#161718" fill-opacity="0.35"/>
        <circle cx="75" cy="230" r="50" fill="#161718" fill-opacity="0.35"/>
        <rect x="168" y="16" width="6" height="246" rx="3" fill="#F5F6FF" fill-opacity="0.35"/>
        <rect x="183" y="16" width="6" height="246" rx="3" fill="#F5F6FF" fill-opacity="0.35"/>
        <rect x="198" y="16" width="6" height="246" rx="3" fill="#F5F6FF" fill-opacity="0.35"/>
        <rect x="213" y="16" width="6" height="246" rx="3" fill="#F5F6FF" fill-opacity="0.35"/>
        <rect x="243" y="16" width="6" height="246" rx="3" fill="#F5F6FF" fill-opacity="0.35"/>
        <rect x="258" y="16" width="6" height="246" rx="3" fill="#F5F6FF" fill-opacity="0.35"/>
        <rect x="228" y="16" width="6" height="246" rx="3" fill="#F5F6FF" fill-opacity="0.35"/>
        <rect x="273" y="16" width="6" height="246" rx="3" fill="#F5F6FF" fill-opacity="0.35"/>
        <rect x="288" y="16" width="6" height="246" rx="3" fill="#F5F6FF" fill-opacity="0.35"/>
        <path d="M298.5 102V199H209L298.5 102Z" fill="#161718" fill-opacity="0.35"/>
        <path d="M298.5 203V300H209L298.5 203Z" fill="#161718" fill-opacity="0.35"/>
        <circle cx="75" cy="80" r="50" fill="#161718" fill-opacity="0.35"/>
        <circle cx="110" cy="49" r="10" fill="#161718" fill-opacity="0.35"/>
    </g>
    <defs>
        <clipPath id="clip0">
            <rect width="300" height="230" fill="white"/>
        </clipPath>
    </defs>
</svg>
