
<svg width="300" height="230" viewBox="0 0 300 230" fill="none" xmlns="http://www.w3.org/2000/svg">
    <g clip-path="url(#clip0)">
        <rect x="155" y="88" width="90" height="223" rx="45" stroke="white" stroke-opacity="0.35" stroke-width="10"/>
        <mask id="path-2-inside-1" fill="white">
            <path d="M99 187.5C99 195.115 96.742 202.558 92.5116 208.889C88.2811 215.221 82.2683 220.155 75.2333 223.069C68.1984 225.983 60.4573 226.746 52.989 225.26C45.5208 223.775 38.6607 220.108 33.2764 214.724C27.8921 209.339 24.2253 202.479 22.7398 195.011C21.2542 187.543 22.0167 179.802 24.9306 172.767C27.8446 165.732 32.7793 159.719 39.1105 155.488C45.4418 151.258 52.8854 149 60.5 149L60.5 179.829C58.9828 179.829 57.4996 180.279 56.2381 181.122C54.9765 181.964 53.9933 183.163 53.4126 184.564C52.832 185.966 52.6801 187.509 52.9761 188.997C53.2721 190.485 54.0027 191.852 55.0756 192.924C56.1484 193.997 57.5153 194.728 59.0034 195.024C60.4915 195.32 62.0339 195.168 63.4357 194.587C64.8374 194.007 66.0355 193.023 66.8785 191.762C67.7214 190.5 68.1713 189.017 68.1713 187.5H99Z"/>
        </mask>
        <path d="M99 187.5C99 195.115 96.742 202.558 92.5116 208.889C88.2811 215.221 82.2683 220.155 75.2333 223.069C68.1984 225.983 60.4573 226.746 52.989 225.26C45.5208 223.775 38.6607 220.108 33.2764 214.724C27.8921 209.339 24.2253 202.479 22.7398 195.011C21.2542 187.543 22.0167 179.802 24.9306 172.767C27.8446 165.732 32.7793 159.719 39.1105 155.488C45.4418 151.258 52.8854 149 60.5 149L60.5 179.829C58.9828 179.829 57.4996 180.279 56.2381 181.122C54.9765 181.964 53.9933 183.163 53.4126 184.564C52.832 185.966 52.6801 187.509 52.9761 188.997C53.2721 190.485 54.0027 191.852 55.0756 192.924C56.1484 193.997 57.5153 194.728 59.0034 195.024C60.4915 195.32 62.0339 195.168 63.4357 194.587C64.8374 194.007 66.0355 193.023 66.8785 191.762C67.7214 190.5 68.1713 189.017 68.1713 187.5H99Z" stroke="white" stroke-opacity="0.35" stroke-width="20" mask="url(#path-2-inside-1)"/>
        <mask id="path-3-inside-2" fill="white">
            <path d="M126 176C126 169.434 124.707 162.932 122.194 156.866C119.681 150.8 115.998 145.288 111.355 140.645C106.712 136.002 101.2 132.319 95.1342 129.806C89.0679 127.293 82.5661 126 76 126L76 176H126Z"/>
        </mask>
        <path d="M126 176C126 169.434 124.707 162.932 122.194 156.866C119.681 150.8 115.998 145.288 111.355 140.645C106.712 136.002 101.2 132.319 95.1342 129.806C89.0679 127.293 82.5661 126 76 126L76 176H126Z" stroke="white" stroke-opacity="0.35" stroke-width="20" mask="url(#path-3-inside-2)"/>
        <mask id="path-4-inside-3" fill="white">
            <path d="M-14.0779 152.915C-1.06762 152.153 11.1311 146.342 19.9199 136.718C28.7086 127.095 33.3926 114.421 32.9742 101.395C32.5558 88.3689 27.068 76.0212 17.6798 66.9818C8.29166 57.9425 -4.25491 52.9259 -17.2873 53.0008L-17.1589 75.3352C-9.94808 75.2938 -3.00599 78.0694 2.18854 83.071C7.38307 88.0725 10.4195 94.9045 10.651 102.112C10.8825 109.319 8.2908 116.332 3.42796 121.657C-1.43489 126.981 -8.18453 130.197 -15.3832 130.618L-14.0779 152.915Z"/>
        </mask>
        <path d="M-14.0779 152.915C-1.06762 152.153 11.1311 146.342 19.9199 136.718C28.7086 127.095 33.3926 114.421 32.9742 101.395C32.5558 88.3689 27.068 76.0212 17.6798 66.9818C8.29166 57.9425 -4.25491 52.9259 -17.2873 53.0008L-17.1589 75.3352C-9.94808 75.2938 -3.00599 78.0694 2.18854 83.071C7.38307 88.0725 10.4195 94.9045 10.651 102.112C10.8825 109.319 8.2908 116.332 3.42796 121.657C-1.43489 126.981 -8.18453 130.197 -15.3832 130.618L-14.0779 152.915Z" stroke="white" stroke-opacity="0.35" stroke-width="20" mask="url(#path-4-inside-3)"/>
        <circle cx="213" cy="139" r="10" fill="white" fill-opacity="0.35"/>
        <circle cx="102.5" cy="89.5" r="6.5" fill="white" fill-opacity="0.35"/>
        <circle cx="119.5" cy="89.5" r="6.5" fill="white" fill-opacity="0.35"/>
        <circle cx="95.5" cy="155.5" r="6.5" fill="white" fill-opacity="0.35"/>
        <circle cx="280" cy="18" r="10" fill="white" fill-opacity="0.35"/>
        <circle cx="255" cy="18" r="10" fill="white" fill-opacity="0.35"/>
        <circle cx="230" cy="18" r="10" fill="white" fill-opacity="0.35"/>
        <circle cx="280" cy="43" r="10" fill="white" fill-opacity="0.35"/>
        <circle cx="255" cy="43" r="10" fill="white" fill-opacity="0.35"/>
        <circle cx="230" cy="43" r="10" fill="white" fill-opacity="0.35"/>
        <rect x="-100" y="29" width="243" height="4" rx="2" fill="white" fill-opacity="0.35"/>
        <rect x="-100" y="36" width="243" height="4" rx="2" fill="white" fill-opacity="0.35"/>
        <rect x="-100" y="43" width="243" height="4" rx="2" fill="white" fill-opacity="0.35"/>
        <rect x="-100" y="8" width="243" height="4" rx="2" fill="white" fill-opacity="0.35"/>
        <rect x="-100" y="15" width="243" height="4" rx="2" fill="white" fill-opacity="0.35"/>
        <rect x="-100" y="22" width="243" height="4" rx="2" fill="white" fill-opacity="0.35"/>
    </g>
    <defs>
        <clipPath id="clip0">
            <rect width="300" height="230" fill="white"/>
        </clipPath>
    </defs>
</svg>
