<svg width="1285" height="969" viewBox="0 0 1285 969" fill="none" xmlns="http://www.w3.org/2000/svg">
    <g clip-path="url(#clip0)">
        <rect width="1285" height="969" fill="#262E4B"/>
        <path d="M562 188H442V308H562C593.826 308 624.348 295.357 646.853 272.853C669.357 250.348 682 219.826 682 188H562Z" fill="#687AE8"/>
        <path d="M562 450H442V330H562C593.826 330 624.348 342.643 646.853 365.147C669.357 387.652 682 418.174 682 450H562Z" fill="#687AE8"/>
        <rect x="260" y="-194" width="50" height="312" rx="25" fill="white" fill-opacity="0.08"/>
        <rect x="339" y="-194" width="50" height="312" rx="25" fill="white" fill-opacity="0.08"/>
        <rect x="417" y="-194" width="50" height="312" rx="25" fill="white" fill-opacity="0.08"/>
        <rect x="-140.5" y="520.5" width="260" height="469" rx="19.5" stroke="#212841" stroke-width="15" stroke-linecap="round" stroke-linejoin="round"/>
        <path d="M42 98V22L82 58.8276L42 98Z" fill="#19B5FE"/>
        <path d="M100 98V22L140 58.8276L100 98Z" fill="#19B5FE"/>
        <path d="M42 194V118L82 154.828L42 194Z" fill="#19B5FE"/>
        <path d="M100 194V118L140 154.828L100 194Z" fill="#19B5FE"/>
        <circle cx="1089.5" cy="521.5" r="113.5" fill="#87B8D4" fill-opacity="0.24" stroke="#87B8D4" stroke-width="48"/>
        <circle cx="177.5" cy="390.5" r="113.5" fill="#00BABA" fill-opacity="0.24" stroke="#00BABA" stroke-width="48"/>
        <circle cx="384.221" cy="846.849" r="2.27788" transform="rotate(-45 384.221 846.849)" fill="#5BD0FF"/>
        <circle cx="388.087" cy="842.984" r="2.27788" transform="rotate(-45 388.087 842.984)" fill="#5BD0FF"/>
        <circle cx="388.087" cy="850.715" r="2.27788" transform="rotate(-45 388.087 850.715)" fill="#5BD0FF"/>
        <circle cx="391.953" cy="846.849" r="2.27788" transform="rotate(-45 391.953 846.849)" fill="#5BD0FF"/>
        <circle cx="391.984" cy="854.611" r="2.27788" transform="rotate(-45 391.984 854.611)" fill="#5BD0FF"/>
        <circle cx="395.849" cy="850.746" r="2.27788" transform="rotate(-45 395.849 850.746)" fill="#5BD0FF"/>
        <circle cx="395.849" cy="858.477" r="2.27788" transform="rotate(-45 395.849 858.477)" fill="#5BD0FF"/>
        <circle cx="399.715" cy="854.611" r="2.27788" transform="rotate(-45 399.715 854.611)" fill="#5BD0FF"/>
        <circle cx="391.984" cy="839.087" r="2.27788" transform="rotate(-45 391.984 839.087)" fill="#5BD0FF"/>
        <circle cx="395.849" cy="835.221" r="2.27788" transform="rotate(-45 395.849 835.221)" fill="#5BD0FF"/>
        <circle cx="395.849" cy="842.953" r="2.27788" transform="rotate(-45 395.849 842.953)" fill="#5BD0FF"/>
        <circle cx="399.715" cy="839.087" r="2.27788" transform="rotate(-45 399.715 839.087)" fill="#5BD0FF"/>
        <circle cx="399.746" cy="846.849" r="2.27788" transform="rotate(-45 399.746 846.849)" fill="#5BD0FF"/>
        <circle cx="403.611" cy="842.984" r="2.27788" transform="rotate(-45 403.611 842.984)" fill="#5BD0FF"/>
        <circle cx="403.611" cy="850.715" r="2.27788" transform="rotate(-45 403.611 850.715)" fill="#5BD0FF"/>
        <circle cx="407.477" cy="846.849" r="2.27788" transform="rotate(-45 407.477 846.849)" fill="#5BD0FF"/>
        <path d="M-1 850V547H141.787H346L141.787 725.318L-1 850Z" fill="#F76734"/>
        <path d="M342.767 602.586H125.084V793.324L342.767 602.586Z" fill="#FFC729"/>
        <circle cx="336.5" cy="385.5" r="8.5" fill="#F76734"/>
        <circle cx="361.66" cy="385.5" r="8.5" fill="#F76734"/>
        <circle cx="386.82" cy="385.5" r="8.5" fill="#F76734"/>
        <circle cx="433.5" cy="443.5" r="8.5" fill="#F76734"/>
        <circle cx="458.66" cy="443.5" r="8.5" fill="#F76734"/>
        <circle cx="483.82" cy="443.5" r="8.5" fill="#F76734"/>
        <path d="M210.703 275.593L233.829 315.648H187.578L210.703 275.593Z" fill="#EF3D7E"/>
        <path d="M246.207 316.407L223.081 276.352H269.333L246.207 316.407Z" fill="#EF3D7E"/>
        <path d="M1259 676C1259 896.914 1079.91 1076 859 1076C638.086 1076 459 896.914 459 676C459 455.086 638.086 276 859 276C1079.91 276 1259 455.086 1259 676Z" fill="#FFF8F8" fill-opacity="0.11"/>
        <path d="M1259 676C1259 896.914 1079.91 1076 859 1076C638.086 1076 459 896.914 459 676C459 455.086 638.086 276 859 276C1079.91 276 1259 455.086 1259 676Z" fill="#FFF8F8" fill-opacity="0.11"/>
        <rect x="1457" y="-363.695" width="726.474" height="14.5735" rx="7.28673" transform="rotate(135 1457 -363.695)" fill="#FFC729"/>
        <rect x="1591.7" y="-363.695" width="726.474" height="14.5735" rx="7.28673" transform="rotate(135 1591.7 -363.695)" fill="#FFC729"/>
        <rect x="1522.65" y="-363.695" width="726.474" height="14.5735" rx="7.28673" transform="rotate(135 1522.65 -363.695)" fill="#FFC729"/>
        <path d="M720 795.909V777.676H738.234V795.909H720Z" fill="white"/>
        <path d="M720.091 747.286V729.052H738.325V747.286H720.091Z" fill="white"/>
        <path d="M720.091 698.571V680.338H738.324V698.571H720.091Z" fill="white"/>
        <path d="M720 649.857V631.624H738.234V649.857H720Z" fill="white"/>
        <path d="M720.091 601.234V583H738.325V601.234H720.091Z" fill="white"/>
        <path d="M768.715 796V777.766H786.949V796H768.715Z" fill="white"/>
        <path d="M768.806 747.286V729.052H787.04V747.286H768.806Z" fill="white"/>
        <path d="M768.715 698.662V680.428H786.949V698.662H768.715Z" fill="white"/>
        <path d="M768.715 649.948V631.714H786.949V649.948H768.715Z" fill="white"/>
        <path d="M817.428 796V777.766H835.662V796H817.428Z" fill="white"/>
        <path d="M817.428 747.286V729.052H835.662V747.286H817.428Z" fill="white"/>
        <path d="M817.428 698.572V680.338H835.662V698.572H817.428Z" fill="white"/>
        <path d="M866.053 796V777.766H884.287V796H866.053Z" fill="white"/>
        <path d="M866.144 747.286V729.052H884.377V747.286H866.144Z" fill="white"/>
        <path d="M914.766 796V777.766H933V796H914.766Z" fill="white"/>
        <path d="M663.938 29.9388C674.797 29.9388 685.211 25.626 692.89 17.9488C700.569 10.2716 704.885 -0.141336 704.888 -11H622.999C623.002 -0.143233 627.316 10.268 634.993 17.9449C642.67 25.6218 653.081 29.9359 663.938 29.9388Z" fill="#FFC264"/>
        <path d="M663.938 23.196C673.008 23.196 681.707 19.5936 688.122 13.1809C694.537 6.76821 698.142 -1.92966 698.145 -11H629.72C629.722 -6.50788 630.608 -2.06003 632.328 2.08959C634.049 6.23922 636.569 10.0093 639.747 13.1847C642.924 16.3601 646.696 18.8786 650.847 20.5963C654.998 22.314 659.446 23.1974 663.938 23.196Z" fill="#A15FFF"/>
        <path d="M663.938 11.3412C669.865 11.3412 675.55 8.98812 679.743 4.79895C683.936 0.609791 686.295 -5.07273 686.301 -11H641.608C641.613 -5.07841 643.967 0.59914 648.154 4.78736C652.34 8.97559 658.016 11.3325 663.938 11.3412Z" fill="#EAEBEC"/>
        <path d="M663.938 60.1613C665.981 60.1613 667.638 58.5049 667.638 56.4615C667.638 54.4182 665.981 52.7617 663.938 52.7617C661.895 52.7617 660.238 54.4182 660.238 56.4615C660.238 58.5049 661.895 60.1613 663.938 60.1613Z" fill="white"/>
        <path d="M708.182 51.8751C710.226 51.8751 711.882 50.2186 711.882 48.1752C711.882 46.1319 710.226 44.4754 708.182 44.4754C706.139 44.4754 704.483 46.1319 704.483 48.1752C704.483 50.2186 706.139 51.8751 708.182 51.8751Z" fill="white"/>
        <path d="M734.3 22.1561C736.344 22.1561 738 20.4996 738 18.4563C738 16.4129 736.344 14.7564 734.3 14.7564C732.257 14.7564 730.6 16.4129 730.6 18.4563C730.6 20.4996 732.257 22.1561 734.3 22.1561Z" fill="white"/>
        <path d="M592.7 22.1561C594.743 22.1561 596.4 20.4996 596.4 18.4563C596.4 16.4129 594.743 14.7564 592.7 14.7564C590.656 14.7564 589 16.4129 589 18.4563C589 20.4996 590.656 22.1561 592.7 22.1561Z" fill="white"/>
        <path d="M618.697 51.8751C620.74 51.8751 622.397 50.2186 622.397 48.1752C622.397 46.1319 620.74 44.4754 618.697 44.4754C616.654 44.4754 614.997 46.1319 614.997 48.1752C614.997 50.2186 616.654 51.8751 618.697 51.8751Z" fill="white"/>
        <path d="M164.565 685.37H154.676V695.251H164.565V685.37ZM164.565 659H154.676V668.881H164.565V659ZM138.117 685.37H128.228V695.251H138.117V685.37ZM138.117 659H128.228V668.881H138.117V659ZM111.727 685.37H101.838V695.251H111.727V685.37ZM111.727 659H101.838V668.881H111.727V659ZM217 685.37H207.111V695.251H217V685.37ZM217 659H207.111V668.881H217V659ZM190.552 685.37H180.663V695.251H190.552V685.37ZM190.552 659H180.663V668.881H190.552V659ZM85.3368 685.37H75.4477V695.251H85.3368V685.37ZM85.3368 659H75.4477V668.881H85.3368V659ZM58.8891 685.37H49V695.251H58.8891V685.37ZM164.565 1173.12H154.676V1183H164.565V1173.12ZM164.565 1146.75H154.676V1156.63H164.565V1146.75ZM138.117 1173.12H128.228V1183H138.117V1173.12ZM138.117 1146.75H128.228V1156.63H138.117V1146.75ZM111.727 1173.12H101.838V1183H111.727V1173.12ZM111.727 1146.75H101.838V1156.63H111.727V1146.75ZM217 1173.12H207.111V1183H217V1173.12ZM217 1146.75H207.111V1156.63H217V1146.75ZM190.552 1173.12H180.663V1183H190.552V1173.12ZM190.552 1146.75H180.663V1156.63H190.552V1146.75ZM85.3368 1173.12H75.4477V1183H85.3368V1173.12ZM85.3368 1146.75H75.4477V1156.63H85.3368V1146.75ZM58.8891 1173.12H49V1183H58.8891V1173.12ZM164.565 929.933H154.676V939.815H164.565V929.933ZM164.565 903.564H154.676V913.445H164.565V903.564ZM138.117 929.933H128.228V939.815H138.117V929.933ZM138.117 903.564H128.228V913.445H138.117V903.564ZM111.727 929.933H101.838V939.815H111.727V929.933ZM111.727 903.564H101.838V913.445H111.727V903.564ZM217 929.933H207.111V939.815H217V929.933ZM217 903.564H207.111V913.445H217V903.564ZM190.552 929.933H180.663V939.815H190.552V929.933ZM190.552 903.564H180.663V913.445H190.552V903.564ZM85.3368 929.933H75.4477V939.815H85.3368V929.933ZM85.3368 903.564H75.4477V913.445H85.3368V903.564ZM58.8891 929.933H49V939.815H58.8891V929.933Z" fill="#5BD0FF"/>
        <path d="M938.994 244.651V248.103H935.542V244.651H938.994Z" fill="#D5BFF7"/>
        <path d="M929.771 244.651V248.103H926.319V244.651H929.771Z" fill="#D5BFF7"/>
        <path d="M920.548 244.668V248.12H917.096V244.668H920.548Z" fill="#D5BFF7"/>
        <path d="M911.325 244.651V248.103H907.873V244.651H911.325Z" fill="#D5BFF7"/>
        <path d="M902.12 244.651V248.103H898.668V244.651H902.12Z" fill="#D5BFF7"/>
        <path d="M938.976 235.428V238.88H935.524V235.428H938.976Z" fill="#D5BFF7"/>
        <path d="M929.754 235.428V238.88H926.302V235.428H929.754Z" fill="#D5BFF7"/>
        <path d="M920.531 235.445V238.897H917.079V235.445H920.531Z" fill="#D5BFF7"/>
        <path d="M911.326 235.445V238.897H907.874V235.445H911.326Z" fill="#D5BFF7"/>
        <path d="M902.103 235.428V238.88H898.651V235.428H902.103Z" fill="#D5BFF7"/>
        <path d="M938.976 226.223V229.675H935.524V226.223H938.976Z" fill="#D5BFF7"/>
        <path d="M929.754 226.205V229.658H926.302V226.205H929.754Z" fill="#D5BFF7"/>
        <path d="M920.548 226.223V229.675H917.096V226.223H920.548Z" fill="#D5BFF7"/>
        <path d="M911.326 226.223V229.675H907.874V226.223H911.326Z" fill="#D5BFF7"/>
        <path d="M902.103 226.223V229.675H898.651V226.223H902.103Z" fill="#D5BFF7"/>
        <path d="M938.976 217V220.452H935.524V217H938.976Z" fill="#D5BFF7"/>
        <path d="M929.771 217V220.452H926.319V217H929.771Z" fill="#D5BFF7"/>
        <path d="M920.548 217V220.452H917.096V217H920.548Z" fill="#D5BFF7"/>
        <path d="M911.326 217V220.452H907.874V217H911.326Z" fill="#D5BFF7"/>
        <path d="M902.12 217V220.452H898.668V217H902.12Z" fill="#D5BFF7"/>
        <path d="M892.88 235.445V238.897H889.428V235.445H892.88Z" fill="#D5BFF7"/>
        <path d="M892.897 226.223V229.675H889.445V226.223H892.897Z" fill="#D5BFF7"/>
        <path d="M883.675 226.223V229.675H880.223V226.223H883.675Z" fill="#D5BFF7"/>
        <path d="M892.897 217.017V220.469H889.445V217.017H892.897Z" fill="#D5BFF7"/>
        <path d="M883.675 217V220.452H880.223V217H883.675Z" fill="#D5BFF7"/>
        <path d="M874.469 217V220.452H871.017V217H874.469Z" fill="#D5BFF7"/>
        <path d="M871 248.12V244.668H874.452V248.12H871Z" fill="#D5BFF7"/>
        <path d="M871.017 238.897V235.445H874.469V238.897H871.017Z" fill="#D5BFF7"/>
        <path d="M871 229.675V226.223H874.452V229.675H871Z" fill="#D5BFF7"/>
        <path d="M880.223 248.103V244.651H883.675V248.103H880.223Z" fill="#D5BFF7"/>
        <path d="M880.223 238.897V235.445H883.675V238.897H880.223Z" fill="#D5BFF7"/>
        <path d="M889.428 248.103V244.651H892.88V248.103H889.428Z" fill="#D5BFF7"/>
        <path d="M1003.52 244.651V248.103H1000.07V244.651H1003.52Z" fill="#D5BFF7"/>
        <path d="M994.295 244.651V248.103H990.843V244.651H994.295Z" fill="#D5BFF7"/>
        <path d="M985.073 244.668V248.12H981.621V244.668H985.073Z" fill="#D5BFF7"/>
        <path d="M975.85 244.651V248.103H972.398V244.651H975.85Z" fill="#D5BFF7"/>
        <path d="M966.644 244.651V248.103H963.192V244.651H966.644Z" fill="#D5BFF7"/>
        <path d="M1003.5 235.445V238.897H1000.05V235.445H1003.5Z" fill="#D5BFF7"/>
        <path d="M994.278 235.428V238.88H990.826V235.428H994.278Z" fill="#D5BFF7"/>
        <path d="M985.055 235.445V238.897H981.603V235.445H985.055Z" fill="#D5BFF7"/>
        <path d="M975.85 235.445V238.897H972.398V235.445H975.85Z" fill="#D5BFF7"/>
        <path d="M966.627 235.428V238.88H963.175V235.428H966.627Z" fill="#D5BFF7"/>
        <path d="M1003.5 226.223V229.675H1000.05V226.223H1003.5Z" fill="#D5BFF7"/>
        <path d="M994.278 226.223V229.675H990.826V226.223H994.278Z" fill="#D5BFF7"/>
        <path d="M985.073 226.223V229.675H981.62V226.223H985.073Z" fill="#D5BFF7"/>
        <path d="M975.85 226.223V229.675H972.398V226.223H975.85Z" fill="#D5BFF7"/>
        <path d="M966.627 226.223V229.675H963.175V226.223H966.627Z" fill="#D5BFF7"/>
        <path d="M1003.5 217V220.452H1000.05V217H1003.5Z" fill="#D5BFF7"/>
        <path d="M994.295 217V220.452H990.843V217H994.295Z" fill="#D5BFF7"/>
        <path d="M985.073 217.017V220.469H981.62V217.017H985.073Z" fill="#D5BFF7"/>
        <path d="M975.85 217V220.452H972.398V217H975.85Z" fill="#D5BFF7"/>
        <path d="M966.644 217V220.452H963.192V217H966.644Z" fill="#D5BFF7"/>
        <path d="M957.404 235.445V238.897H953.952V235.445H957.404Z" fill="#D5BFF7"/>
        <path d="M957.422 226.223V229.675H953.969V226.223H957.422Z" fill="#D5BFF7"/>
        <path d="M948.199 226.223V229.675H944.747V226.223H948.199Z" fill="#D5BFF7"/>
        <path d="M957.422 217.017V220.469H953.969V217.017H957.422Z" fill="#D5BFF7"/>
        <path d="M948.199 217V220.452H944.747V217H948.199Z" fill="#D5BFF7"/>
        <path d="M938.976 217V220.452H935.524V217H938.976Z" fill="#D5BFF7"/>
        <path d="M935.524 248.12V244.668H938.976V248.12H935.524Z" fill="#D5BFF7"/>
        <path d="M935.541 238.897V235.445H938.993V238.897H935.541Z" fill="#D5BFF7"/>
        <path d="M935.524 229.675V226.223H938.976V229.675H935.524Z" fill="#D5BFF7"/>
        <path d="M944.747 248.103V244.651H948.199V248.103H944.747Z" fill="#D5BFF7"/>
        <path d="M944.747 238.897V235.445H948.199V238.897H944.747Z" fill="#D5BFF7"/>
        <path d="M953.952 248.103V244.651H957.404V248.103H953.952Z" fill="#D5BFF7"/>
        <path d="M1068.02 244.651V248.103H1064.57V244.651H1068.02Z" fill="#D5BFF7"/>
        <path d="M1058.82 244.651V248.103H1055.37V244.651H1058.82Z" fill="#D5BFF7"/>
        <path d="M1049.6 244.668V248.12H1046.14V244.668H1049.6Z" fill="#D5BFF7"/>
        <path d="M1040.37 244.651V248.103H1036.92V244.651H1040.37Z" fill="#D5BFF7"/>
        <path d="M1031.17 244.651V248.103H1027.72V244.651H1031.17Z" fill="#D5BFF7"/>
        <path d="M1068.02 235.445V238.897H1064.57V235.445H1068.02Z" fill="#D5BFF7"/>
        <path d="M1058.8 235.428V238.88H1055.35V235.428H1058.8Z" fill="#D5BFF7"/>
        <path d="M1049.58 235.445V238.897H1046.13V235.445H1049.58Z" fill="#D5BFF7"/>
        <path d="M1040.37 235.445V238.897H1036.92V235.445H1040.37Z" fill="#D5BFF7"/>
        <path d="M1031.15 235.428V238.88H1027.7V235.428H1031.15Z" fill="#D5BFF7"/>
        <path d="M1068.02 226.223V229.675H1064.57V226.223H1068.02Z" fill="#D5BFF7"/>
        <path d="M1058.8 226.223V229.675H1055.35V226.223H1058.8Z" fill="#D5BFF7"/>
        <path d="M1049.6 226.223V229.675H1046.14V226.223H1049.6Z" fill="#D5BFF7"/>
        <path d="M1040.37 226.223V229.675H1036.92V226.223H1040.37Z" fill="#D5BFF7"/>
        <path d="M1031.15 226.223V229.675H1027.7V226.223H1031.15Z" fill="#D5BFF7"/>
        <path d="M1068.02 217V220.452H1064.57V217H1068.02Z" fill="#D5BFF7"/>
        <path d="M1058.82 217V220.452H1055.37V217H1058.82Z" fill="#D5BFF7"/>
        <path d="M1049.6 217.017V220.469H1046.14V217.017H1049.6Z" fill="#D5BFF7"/>
        <path d="M1040.37 217V220.452H1036.92V217H1040.37Z" fill="#D5BFF7"/>
        <path d="M1031.17 217V220.452H1027.72V217H1031.17Z" fill="#D5BFF7"/>
        <path d="M1021.93 235.428V238.88H1018.48V235.428H1021.93Z" fill="#D5BFF7"/>
        <path d="M1021.95 226.205V229.658H1018.49V226.205H1021.95Z" fill="#D5BFF7"/>
        <path d="M1012.72 226.223V229.675H1009.27V226.223H1012.72Z" fill="#D5BFF7"/>
        <path d="M1021.95 217V220.452H1018.49V217H1021.95Z" fill="#D5BFF7"/>
        <path d="M1012.72 217V220.452H1009.27V217H1012.72Z" fill="#D5BFF7"/>
        <path d="M1003.5 217V220.452H1000.05V217H1003.5Z" fill="#D5BFF7"/>
        <path d="M1000.05 248.12V244.668H1003.5V248.12H1000.05Z" fill="#D5BFF7"/>
        <path d="M1000.05 238.897V235.445H1003.5V238.897H1000.05Z" fill="#D5BFF7"/>
        <path d="M1000.05 229.675V226.223H1003.5V229.675H1000.05Z" fill="#D5BFF7"/>
        <path d="M1009.25 248.103V244.651H1012.71V248.103H1009.25Z" fill="#D5BFF7"/>
        <path d="M1009.27 238.897V235.445H1012.72V238.897H1009.27Z" fill="#D5BFF7"/>
        <path d="M1018.48 248.12V244.668H1021.93V248.12H1018.48Z" fill="#D5BFF7"/>
        <path d="M1132.55 244.651V248.103H1129.1V244.651H1132.55Z" fill="#D5BFF7"/>
        <path d="M1123.34 244.651V248.103H1119.89V244.651H1123.34Z" fill="#D5BFF7"/>
        <path d="M1114.12 244.651V248.103H1110.67V244.651H1114.12Z" fill="#D5BFF7"/>
        <path d="M1104.9 244.651V248.103H1101.45V244.651H1104.9Z" fill="#D5BFF7"/>
        <path d="M1095.69 244.651V248.103H1092.24V244.651H1095.69Z" fill="#D5BFF7"/>
        <path d="M1132.55 235.445V238.897H1129.1V235.445H1132.55Z" fill="#D5BFF7"/>
        <path d="M1123.33 235.428V238.88H1119.87V235.428H1123.33Z" fill="#D5BFF7"/>
        <path d="M1114.1 235.428V238.88H1110.65V235.428H1114.1Z" fill="#D5BFF7"/>
        <path d="M1104.9 235.445V238.897H1101.45V235.445H1104.9Z" fill="#D5BFF7"/>
        <path d="M1095.68 235.428V238.88H1092.22V235.428H1095.68Z" fill="#D5BFF7"/>
        <path d="M1132.55 226.223V229.675H1129.1V226.223H1132.55Z" fill="#D5BFF7"/>
        <path d="M1123.33 226.223V229.675H1119.87V226.223H1123.33Z" fill="#D5BFF7"/>
        <path d="M1114.12 226.205V229.658H1110.67V226.205H1114.12Z" fill="#D5BFF7"/>
        <path d="M1104.9 226.223V229.675H1101.45V226.223H1104.9Z" fill="#D5BFF7"/>
        <path d="M1095.68 226.223V229.675H1092.22V226.223H1095.68Z" fill="#D5BFF7"/>
        <path d="M1132.55 217V220.452H1129.1V217H1132.55Z" fill="#D5BFF7"/>
        <path d="M1123.34 217V220.452H1119.89V217H1123.34Z" fill="#D5BFF7"/>
        <path d="M1114.12 217V220.452H1110.67V217H1114.12Z" fill="#D5BFF7"/>
        <path d="M1104.9 217V220.452H1101.45V217H1104.9Z" fill="#D5BFF7"/>
        <path d="M1095.68 217V220.452H1092.22V217H1095.68Z" fill="#D5BFF7"/>
        <path d="M1086.45 235.428V238.88H1083V235.428H1086.45Z" fill="#D5BFF7"/>
        <path d="M1086.45 226.205V229.658H1083V226.205H1086.45Z" fill="#D5BFF7"/>
        <path d="M1077.25 226.223V229.675H1073.8V226.223H1077.25Z" fill="#D5BFF7"/>
        <path d="M1086.47 217V220.452H1083.02V217H1086.47Z" fill="#D5BFF7"/>
        <path d="M1077.25 217V220.452H1073.8V217H1077.25Z" fill="#D5BFF7"/>
        <path d="M1068.02 217V220.452H1064.57V217H1068.02Z" fill="#D5BFF7"/>
        <path d="M1064.57 248.103V244.651H1068.02V248.103H1064.57Z" fill="#D5BFF7"/>
        <path d="M1064.57 238.897V235.445H1068.02V238.897H1064.57Z" fill="#D5BFF7"/>
        <path d="M1064.57 229.675V226.223H1068.02V229.675H1064.57Z" fill="#D5BFF7"/>
        <path d="M1073.78 248.103V244.651H1077.23V248.103H1073.78Z" fill="#D5BFF7"/>
        <path d="M1073.8 238.88V235.428H1077.25V238.88H1073.8Z" fill="#D5BFF7"/>
        <path d="M1083 248.12V244.668H1086.45V248.12H1083Z" fill="#D5BFF7"/>
        <path d="M1178.64 244.651V248.103H1175.19V244.651H1178.64Z" fill="#D5BFF7"/>
        <path d="M1169.42 244.668V248.12H1165.97V244.668H1169.42Z" fill="#D5BFF7"/>
        <path d="M1160.22 244.651V248.103H1156.76V244.651H1160.22Z" fill="#D5BFF7"/>
        <path d="M1178.63 235.428V238.88H1175.18V235.428H1178.63Z" fill="#D5BFF7"/>
        <path d="M1169.42 235.445V238.897H1165.97V235.445H1169.42Z" fill="#D5BFF7"/>
        <path d="M1160.2 235.445V238.897H1156.75V235.445H1160.2Z" fill="#D5BFF7"/>
        <path d="M1178.64 226.205V229.658H1175.19V226.205H1178.64Z" fill="#D5BFF7"/>
        <path d="M1169.42 226.223V229.675H1165.97V226.223H1169.42Z" fill="#D5BFF7"/>
        <path d="M1160.2 226.223V229.675H1156.75V226.223H1160.2Z" fill="#D5BFF7"/>
        <path d="M1178.64 217V220.452H1175.19V217H1178.64Z" fill="#D5BFF7"/>
        <path d="M1169.42 217V220.452H1165.97V217H1169.42Z" fill="#D5BFF7"/>
        <path d="M1160.2 217V220.452H1156.75V217H1160.2Z" fill="#D5BFF7"/>
        <path d="M1150.98 235.428V238.88H1147.52V235.428H1150.98Z" fill="#D5BFF7"/>
        <path d="M1150.98 226.223V229.675H1147.52V226.223H1150.98Z" fill="#D5BFF7"/>
        <path d="M1141.77 226.223V229.675H1138.32V226.223H1141.77Z" fill="#D5BFF7"/>
        <path d="M1150.99 217V220.452H1147.54V217H1150.99Z" fill="#D5BFF7"/>
        <path d="M1141.77 217.017V220.469H1138.32V217.017H1141.77Z" fill="#D5BFF7"/>
        <path d="M1132.55 217V220.452H1129.1V217H1132.55Z" fill="#D5BFF7"/>
        <path d="M1129.1 248.103V244.651H1132.55V248.103H1129.1Z" fill="#D5BFF7"/>
        <path d="M1129.1 238.897V235.445H1132.55V238.897H1129.1Z" fill="#D5BFF7"/>
        <path d="M1129.1 229.675V226.223H1132.55V229.675H1129.1Z" fill="#D5BFF7"/>
        <path d="M1138.3 248.103V244.651H1141.75V248.103H1138.3Z" fill="#D5BFF7"/>
        <path d="M1138.32 238.88V235.428H1141.77V238.88H1138.32Z" fill="#D5BFF7"/>
        <path d="M1147.52 248.12V244.668H1150.98V248.12H1147.52Z" fill="#D5BFF7"/>
        <path d="M1206.59 244.651V248.103H1203.14V244.651H1206.59Z" fill="#D5BFF7"/>
        <path d="M1206.57 235.445V238.897H1203.12V235.445H1206.57Z" fill="#D5BFF7"/>
        <path d="M1206.57 226.223V229.675H1203.12V226.223H1206.57Z" fill="#D5BFF7"/>
        <path d="M1206.57 217V220.452H1203.12V217H1206.57Z" fill="#D5BFF7"/>
        <path d="M1197.35 235.428V238.88H1193.9V235.428H1197.35Z" fill="#D5BFF7"/>
        <path d="M1197.35 226.223V229.675H1193.9V226.223H1197.35Z" fill="#D5BFF7"/>
        <path d="M1188.14 226.223V229.675H1184.69V226.223H1188.14Z" fill="#D5BFF7"/>
        <path d="M1197.36 217V220.452H1193.91V217H1197.36Z" fill="#D5BFF7"/>
        <path d="M1188.14 217.017V220.469H1184.69V217.017H1188.14Z" fill="#D5BFF7"/>
        <path d="M1184.67 248.103V244.651H1188.12V248.103H1184.67Z" fill="#D5BFF7"/>
        <path d="M1184.69 238.88V235.428H1188.14V238.88H1184.69Z" fill="#D5BFF7"/>
        <path d="M1193.9 248.12V244.668H1197.35V248.12H1193.9Z" fill="#D5BFF7"/>
        <path d="M1132.68 962L1156.46 941.886M1302 720.349L1291.24 749.528L1302 720.349ZM1276.23 713.266L1270.85 743.862L1276.23 713.266ZM1249.62 711V742.163V711ZM1223.28 713.266L1228.66 743.862L1223.28 713.266ZM1197.52 720.349L1208.28 749.528L1197.52 720.349ZM1173.45 731.397L1189.02 758.31L1173.45 731.397ZM1151.65 746.695L1171.47 770.492L1151.65 746.695ZM1132.68 765.676L1156.46 785.507L1132.68 765.676ZM1117.39 787.49L1144.57 803.071L1117.39 787.49ZM1106.34 811.57L1135.51 822.052L1106.34 811.57ZM1099.27 837.35L1130.13 842.733L1099.27 837.35ZM1097 863.696H1128.15H1097ZM1099.27 890.326L1130.13 884.944L1099.27 890.326ZM1106.34 916.106L1135.51 905.341L1106.34 916.106ZM1117.39 940.186L1144.57 924.605L1117.39 940.186Z" stroke="#FFC729" stroke-width="3" stroke-miterlimit="10"/>
        <path d="M543.336 263.312L574.312 232.336M558.824 226V270V226ZM537 247.824H581H537ZM543.336 232.336L574.312 263.312L543.336 232.336Z" stroke="#37C2D9" stroke-miterlimit="10"/>
        <path d="M543.336 407.312L574.312 376.336M558.824 370V414V370ZM537 391.824H581H537ZM543.336 376.336L574.312 407.312L543.336 376.336Z" stroke="#37C2D9" stroke-miterlimit="10"/>
        <path d="M748 355.243H956V365.716H748V355.243ZM748 403.923H883.864V414.397H748V403.923Z" stroke="#212841" stroke-width="1.5" stroke-miterlimit="10"/>
        <path d="M898.616 403.923H954.377V414.397H898.616V403.923ZM748 377.223H836.068V387.696H748V377.223Z" stroke="#B8B6FF" stroke-width="1.5" stroke-miterlimit="10"/>
        <path d="M839.166 426.494H883.864V436.967H839.166V426.494Z" stroke="#4949E4" stroke-width="1.5" stroke-miterlimit="10"/>
        <path d="M776.471 426.494H821.169V436.967H776.471V426.494Z" stroke="#B8B6FF" stroke-width="1.5" stroke-miterlimit="10"/>
        <path d="M758.326 431.657C758.326 428.854 755.966 426.494 753.163 426.494C750.36 426.494 748 428.854 748 431.657C748 434.46 750.36 436.82 753.163 436.82C755.966 436.82 758.326 434.607 758.326 431.657ZM758.326 339.163C758.326 336.36 755.966 334 753.163 334C750.36 334 748 336.36 748 339.163C748 341.966 750.36 344.326 753.163 344.326C755.966 344.326 758.326 341.966 758.326 339.163ZM771.308 334H781.634V344.326H771.308V334Z" stroke="#687AE8" stroke-width="1.5" stroke-miterlimit="10"/>
        <path d="M842.854 387.549L848.902 377.223L854.95 387.549H842.854ZM794.616 344.326L800.664 334L806.712 344.326H794.616Z" stroke="#B8B6FF" stroke-width="1.5" stroke-miterlimit="10"/>
        <path d="M861.589 377.223H871.915V387.549H861.589V377.223Z" stroke="#FFCC4B" stroke-width="1.5" stroke-miterlimit="10"/>
        <path d="M670.755 693.497C661.585 695.768 652.008 695.856 642.798 693.754C634.541 691.818 626.666 688.522 619.5 684C612.334 688.522 604.459 691.818 596.202 693.754C586.992 695.856 577.415 695.768 568.245 693.497C568.245 693.497 568 746.583 568 771.993C568 797.404 619.5 809 619.5 809C619.5 809 671 797.404 671 771.993C671 746.583 670.755 693.497 670.755 693.497Z" fill="#B8B6FF"/>
        <path d="M598.919 717C591.219 717 585 723.219 585 730.919V732.244C584.999 732.332 585.015 732.419 585.048 732.501C585.081 732.582 585.129 732.656 585.191 732.719C585.253 732.781 585.326 732.831 585.407 732.865C585.488 732.899 585.575 732.916 585.663 732.916C585.751 732.916 585.838 732.899 585.919 732.865C586 732.831 586.073 732.781 586.135 732.719C586.197 732.656 586.245 732.582 586.278 732.501C586.311 732.419 586.327 732.332 586.326 732.244V730.919C586.326 723.931 591.931 718.326 598.919 718.326C605.907 718.326 611.512 723.931 611.512 730.919V739.535H606.872C605.048 739.535 603.558 741.024 603.558 742.849V766.709C603.558 768.534 605.048 770.023 606.872 770.023H638.686C640.511 770.023 642 768.534 642 766.709V742.849C642 741.024 640.511 739.535 638.686 739.535H612.837V730.919C612.837 723.219 606.618 717 598.919 717ZM606.872 740.86H638.686C639.799 740.86 640.674 741.736 640.674 742.849V766.709C640.674 767.822 639.799 768.698 638.686 768.698H606.872C605.759 768.698 604.884 767.822 604.884 766.709V742.849C604.884 741.736 605.759 740.86 606.872 740.86ZM622.779 750.139C620.225 750.139 618.14 752.224 618.14 754.779C618.14 757.333 620.225 759.419 622.779 759.419C625.334 759.419 627.419 757.333 627.419 754.779C627.419 752.224 625.334 750.139 622.779 750.139ZM622.779 751.465C624.617 751.465 626.093 752.941 626.093 754.779C626.093 756.617 624.617 758.093 622.779 758.093C620.941 758.093 619.465 756.617 619.465 754.779C619.465 752.941 620.941 751.465 622.779 751.465Z" fill="black"/>
    </g>
    <defs>
        <clipPath id="clip0">
            <rect width="1285" height="969" fill="white"/>
        </clipPath>
    </defs>
</svg>
