<svg xmlns="http://www.w3.org/2000/svg" viewBox="0 0 292.38 263.69"><defs><style>.cls-1,.cls-10,.cls-11,.cls-6{fill:#fff;}.cls-1,.cls-11,.cls-12,.cls-13,.cls-2,.cls-4,.cls-6,.cls-8{stroke:#0c5ae5;}.cls-1,.cls-11,.cls-2,.cls-4,.cls-6,.cls-7,.cls-8{stroke-linecap:round;stroke-linejoin:round;}.cls-1,.cls-11,.cls-2,.cls-4,.cls-7,.cls-8{stroke-width:0.62px;}.cls-12,.cls-13,.cls-2,.cls-7,.cls-8{fill:none;}.cls-11,.cls-2{stroke-dasharray:6.22 3.11;}.cls-3,.cls-4,.cls-9{fill:#d4e6fc;}.cls-3{stroke:#d4e6fc;stroke-width:0.16px;}.cls-12,.cls-13,.cls-3{stroke-miterlimit:10;}.cls-5{fill:#0c5ae5;}.cls-6{stroke-width:0.62px;}.cls-7{stroke:#fff;}.cls-12{stroke-width:2px;}.cls-13{stroke-width:3px;}</style></defs><title>Asset 1</title><g id="Layer_2" data-name="Layer 2"><g id="Layer_1-2" data-name="Layer 1"><polygon class="cls-1" points="168.96 73.64 166.77 69.91 154.8 76.94 156.98 80.67 150.13 92.74 145.81 92.78 145.91 106.66 150.23 106.63 157.26 118.6 155.13 122.36 167.2 129.22 169.34 125.46 183.22 125.36 185.41 129.08 197.38 122.05 195.2 118.33 202.05 106.25 206.37 106.22 206.27 92.33 201.95 92.37 194.92 80.39 197.05 76.64 184.98 69.78 182.84 73.54 168.96 73.64"/><path class="cls-1" d="M176,88.39a11.11,11.11,0,1,1-11,11.19A11.11,11.11,0,0,1,176,88.39Z"/><path class="cls-2" d="M32.32,30.15S5.15,53.89,35.26,84.08"/><path class="cls-3" d="M8.5,162.14c-3.91,6.67-12.35,13.08-6.31,22.36,4.17,6.4,12.54,8.67,9.28,17.77-1.29,3.6-3.76,6.32-3,10.38.65,3.53,3.41,6.32,5.85,8.75,2.09,2.09,5.44,4.06,7,6.61,2.53,4.17-.06,7.31-1.26,11.45-1.15,3.95-1.33,8.32.86,12,2.89,4.87,8.56,5.37,12.29,8.94,0,0,17.15,11.2,24.17-9.49C59,246,61.49,241.56,60.29,236c-.9-4.19-4-7.27-7.53-9.39-3.7-2.22-7.73-2.75-8.71-7.54-.6-2.93.52-6.65.64-9.61.13-3.43.26-7.36-1.67-10.38-2.21-3.48-5.87-3.8-9.27-5.56-8.57-4.45-4-11.81-5.28-19.34-1.88-10.91-12.42-9.87-19.83-12.1Z"/><line class="cls-4" x1="15.33" y1="179.33" x2="48.16" y2="263.02"/><line class="cls-4" x1="16.72" y1="208.29" x2="29.69" y2="215.95"/><line class="cls-4" x1="42.04" y1="247.43" x2="49.06" y2="235.85"/><line class="cls-4" x1="25.36" y1="204.9" x2="28.8" y2="194.38"/><polygon class="cls-5" points="37.06 160.47 103.23 160.47 103.23 121.2 37.06 131.09 37.06 160.47"/><polygon class="cls-5" points="36.1 263.44 46.43 252.81 55.16 252.81 55.16 263.44 36.1 263.44"/><polygon class="cls-5" points="92.93 263.44 86.24 252.81 77.52 252.81 77.52 263.44 92.93 263.44"/><polygon class="cls-6" points="98.04 160.27 98.04 255.63 71.27 255.63 71.27 179.56 67.78 179.56 62.88 255.63 36.1 255.63 41.01 179.56 42.26 160.27 98.04 160.27"/><path class="cls-5" d="M110.79,113.15c0-22.05-16.88-31.88-38.92-32.41l-1.37,0c-33.16,0-43.62,24.1-45.19,28.26-3.5,9.26-13.34,38.3,18.37,51.73,9.54,4,16.36-5.76,21.45-8.38a121.33,121.33,0,0,1,12.08-5.71Z"/><path class="cls-5" d="M96.1,124.13s3.54,16.12,23.31,12.64,14-33.88,14-33.88H118.11l-.56,14s-8.12-21-18.28-28.24C93.07,84.24,96.1,124.13,96.1,124.13Z"/><line class="cls-7" x1="103" y1="117.81" x2="103" y2="134.54"/><polygon class="cls-1" points="57.18 157.11 62.74 162.71 67.22 168.01 65.34 169.9 67 172.08 57.7 179.3 45.63 164.79 57.18 157.11"/><line class="cls-8" x1="65.06" y1="173.47" x2="61.07" y2="168.92"/><line class="cls-8" x1="62.45" y1="175.27" x2="58.45" y2="170.71"/><line class="cls-8" x1="59.98" y1="177.24" x2="55.99" y2="172.68"/><line class="cls-8" x1="65.39" y1="169.99" x2="62.45" y2="166.59"/><path class="cls-5" d="M42.28,118.65c-8.39,17.91,17.33,37.63,17.33,37.63L44.22,167.75s-20.68-17.5-21.74-29.34"/><path class="cls-5" d="M68.64,70.92s-9.79,2.53-10.38-9.38,18.54-16.21,23-11.23S68.64,70.92,68.64,70.92Z"/><path class="cls-1" d="M69.56,87.19h0a6,6,0,0,0,6-6V61.51H63.52V81.15A6,6,0,0,0,69.56,87.19Z"/><path class="cls-1" d="M59.27,62.49a3.35,3.35,0,0,0,3.92,3.58,8.81,8.81,0,0,0,1.1,3.43,9,9,0,1,0,.37-9.4,3.35,3.35,0,0,0-5.39,2.39Z"/><path class="cls-8" d="M64.25,64.19a1.52,1.52,0,0,0-1.65-1.6"/><rect class="cls-9" x="86.8" y="102.14" width="168.03" height="161.3"/><polygon class="cls-1" points="120.52 96.29 120.62 105.68 132.38 105.62 132.62 96.38 120.52 96.29"/><line class="cls-8" x1="122.99" y1="105.52" x2="123.15" y2="99.46"/><line class="cls-8" x1="126.15" y1="105.22" x2="126.31" y2="99.17"/><line class="cls-8" x1="129.3" y1="105.16" x2="129.46" y2="99.1"/><path class="cls-7" d="M42.28,118.65c-8.39,17.91,17.33,37.63,17.33,37.63"/><rect class="cls-10" x="109.6" y="132.78" width="122.72" height="18.87"/><rect class="cls-10" x="109.6" y="159.57" width="122.72" height="18.87"/><rect class="cls-10" x="109.6" y="187.19" width="122.72" height="18.87"/><rect class="cls-5" x="134.02" y="219.46" width="73.88" height="18.87"/><circle class="cls-11" cx="229.39" cy="66.78" r="23.6"/><line class="cls-4" x1="14.05" y1="263.38" x2="292.07" y2="263.38"/><polygon class="cls-5" points="267.58 263.38 226.42 263.38 220.82 217.54 273.17 217.54 267.58 263.38"/><rect class="cls-1" x="217.34" y="217.54" width="59.32" height="10.45"/><line class="cls-4" x1="247" y1="217.54" x2="247" y2="170.83"/><circle class="cls-1" cx="247" cy="166.81" r="26.06"/><circle class="cls-6" cx="247" cy="166.81" r="20.94" transform="translate(-45.61 223.51) rotate(-45)"/><path class="cls-5" d="M247,217.43s0-19.87-20.15-22.33C225.17,211.67,247,217.43,247,217.43Z"/><line class="cls-7" x1="231.11" y1="200.62" x2="242.23" y2="211.47"/><path class="cls-5" d="M247.09,217.65s0-19.86,20.16-22.33C268.93,211.89,247.09,217.65,247.09,217.65Z"/><line class="cls-7" x1="262.98" y1="200.84" x2="251.86" y2="211.7"/><path class="cls-5" d="M238.57,163.84v5.78a8.6,8.6,0,1,0,17.2,0v-5.78Zm9.62,8.85h-2.06V168.3h2.06Z"/><path class="cls-12" d="M252.53,162.18v-1.12a5.36,5.36,0,0,0-5.36-5.37h0a5.36,5.36,0,0,0-5.37,5.37v1.12"/><path class="cls-2" d="M264.93,136.4s17.32-31.24-13.61-48.65"/><path class="cls-5" d="M156.3,72.1l-1-7.46-2.31.3-4.58-6,.9-2.16-7-2.89-.89,2.16-7.47,1L132.6,55.2l-6,4.57,1.42,1.86-2.88,6.95-2.32.3,1,7.46,2.32-.3,4.57,6-.9,2.16,6.95,2.89.9-2.16,7.46-1,1.42,1.86,6-4.57-1.42-1.86L154,72.4Zm-16,4.36a6,6,0,1,1,5.19-6.75A6,6,0,0,1,140.35,76.46Z"/><rect class="cls-11" x="42.04" y="0.31" width="104.37" height="29.84"/><circle class="cls-9" cx="57.7" cy="15.23" r="4.6"/><circle class="cls-9" cx="72.24" cy="15.23" r="4.6"/><circle class="cls-9" cx="86.78" cy="15.23" r="4.6"/><circle class="cls-9" cx="101.32" cy="15.23" r="4.6"/><circle class="cls-9" cx="115.87" cy="15.23" r="4.6"/><path class="cls-9" d="M135,15.23a4.6,4.6,0,1,1-4.6-4.6A4.6,4.6,0,0,1,135,15.23Z"/><path class="cls-5" d="M236.68,67.16a5.83,5.83,0,1,1,0-8.24A5.83,5.83,0,0,1,236.68,67.16Z"/><polyline class="cls-13" points="232.56 63.04 222.41 73.18 225.59 76.35"/><line class="cls-13" x1="227.6" y1="72.66" x2="225.27" y2="70.33"/><path class="cls-10" d="M234.75,65.23a3.1,3.1,0,1,1,0-4.38A3.11,3.11,0,0,1,234.75,65.23Z"/></g></g></svg>