<svg width="800" height="600" viewBox="0 0 800 600" fill="none" xmlns="http://www.w3.org/2000/svg">
<rect width="800" height="600" fill="#CCCCCC"/>
<path d="M339.145 291.086C339.145 292.363 338.805 293.5 338.125 294.496C337.457 295.492 336.549 296.271 335.4 296.834C336.736 297.408 337.791 298.246 338.564 299.348C339.35 300.449 339.742 301.697 339.742 303.092C339.742 305.307 338.992 307.07 337.492 308.383C336.004 309.695 334.041 310.352 331.604 310.352C329.143 310.352 327.168 309.695 325.68 308.383C324.203 307.059 323.465 305.295 323.465 303.092C323.465 301.709 323.84 300.461 324.59 299.348C325.352 298.234 326.4 297.391 327.736 296.816C326.6 296.254 325.703 295.475 325.047 294.479C324.391 293.482 324.062 292.352 324.062 291.086C324.062 288.93 324.754 287.219 326.137 285.953C327.52 284.688 329.342 284.055 331.604 284.055C333.854 284.055 335.67 284.688 337.053 285.953C338.447 287.219 339.145 288.93 339.145 291.086ZM336.49 303.021C336.49 301.592 336.033 300.426 335.119 299.523C334.217 298.621 333.033 298.17 331.568 298.17C330.104 298.17 328.926 298.615 328.035 299.506C327.156 300.396 326.717 301.568 326.717 303.021C326.717 304.475 327.145 305.617 328 306.449C328.867 307.281 330.068 307.697 331.604 307.697C333.127 307.697 334.322 307.281 335.189 306.449C336.057 305.605 336.49 304.463 336.49 303.021ZM331.604 286.727C330.326 286.727 329.289 287.125 328.492 287.922C327.707 288.707 327.314 289.779 327.314 291.139C327.314 292.439 327.701 293.494 328.475 294.303C329.26 295.1 330.303 295.498 331.604 295.498C332.904 295.498 333.941 295.1 334.715 294.303C335.5 293.494 335.893 292.439 335.893 291.139C335.893 289.838 335.488 288.777 334.68 287.957C333.871 287.137 332.846 286.727 331.604 286.727ZM359.887 299.084C359.887 302.893 359.236 305.723 357.936 307.574C356.635 309.426 354.602 310.352 351.836 310.352C349.105 310.352 347.084 309.449 345.771 307.645C344.459 305.828 343.779 303.121 343.732 299.523V295.182C343.732 291.42 344.383 288.625 345.684 286.797C346.984 284.969 349.023 284.055 351.801 284.055C354.555 284.055 356.582 284.939 357.883 286.709C359.184 288.467 359.852 291.186 359.887 294.865V299.084ZM356.635 294.637C356.635 291.883 356.248 289.879 355.475 288.625C354.701 287.359 353.477 286.727 351.801 286.727C350.137 286.727 348.924 287.354 348.162 288.607C347.4 289.861 347.008 291.789 346.984 294.391V299.594C346.984 302.359 347.383 304.404 348.18 305.729C348.988 307.041 350.207 307.697 351.836 307.697C353.441 307.697 354.631 307.076 355.404 305.834C356.189 304.592 356.6 302.635 356.635 299.963V294.637ZM380.102 299.084C380.102 302.893 379.451 305.723 378.15 307.574C376.85 309.426 374.816 310.352 372.051 310.352C369.32 310.352 367.299 309.449 365.986 307.645C364.674 305.828 363.994 303.121 363.947 299.523V295.182C363.947 291.42 364.598 288.625 365.898 286.797C367.199 284.969 369.238 284.055 372.016 284.055C374.77 284.055 376.797 284.939 378.098 286.709C379.398 288.467 380.066 291.186 380.102 294.865V299.084ZM376.85 294.637C376.85 291.883 376.463 289.879 375.689 288.625C374.916 287.359 373.691 286.727 372.016 286.727C370.352 286.727 369.139 287.354 368.377 288.607C367.615 289.861 367.223 291.789 367.199 294.391V299.594C367.199 302.359 367.598 304.404 368.395 305.729C369.203 307.041 370.422 307.697 372.051 307.697C373.656 307.697 374.846 307.076 375.619 305.834C376.404 304.592 376.814 302.635 376.85 299.963V294.637ZM399.912 297.924L404.131 290.98H407.928L401.705 300.385L408.121 310H404.359L399.965 302.881L395.57 310H391.791L398.207 300.385L391.984 290.98H395.746L399.912 297.924ZM432.748 284.389V287.148H432.15C429.619 287.195 427.604 287.945 426.104 289.398C424.604 290.852 423.736 292.896 423.502 295.533C424.85 293.986 426.689 293.213 429.021 293.213C431.248 293.213 433.023 293.998 434.348 295.568C435.684 297.139 436.352 299.166 436.352 301.65C436.352 304.287 435.631 306.396 434.189 307.979C432.76 309.561 430.838 310.352 428.424 310.352C425.975 310.352 423.988 309.414 422.465 307.539C420.941 305.652 420.18 303.227 420.18 300.262V299.014C420.18 294.303 421.182 290.705 423.186 288.221C425.201 285.725 428.195 284.447 432.168 284.389H432.748ZM428.477 295.92C427.363 295.92 426.338 296.254 425.4 296.922C424.463 297.59 423.812 298.428 423.449 299.436V300.631C423.449 302.74 423.924 304.439 424.873 305.729C425.822 307.018 427.006 307.662 428.424 307.662C429.889 307.662 431.037 307.123 431.869 306.045C432.713 304.967 433.135 303.555 433.135 301.809C433.135 300.051 432.707 298.633 431.852 297.555C431.008 296.465 429.883 295.92 428.477 295.92ZM456.25 299.084C456.25 302.893 455.6 305.723 454.299 307.574C452.998 309.426 450.965 310.352 448.199 310.352C445.469 310.352 443.447 309.449 442.135 307.645C440.822 305.828 440.143 303.121 440.096 299.523V295.182C440.096 291.42 440.746 288.625 442.047 286.797C443.348 284.969 445.387 284.055 448.164 284.055C450.918 284.055 452.945 284.939 454.246 286.709C455.547 288.467 456.215 291.186 456.25 294.865V299.084ZM452.998 294.637C452.998 291.883 452.611 289.879 451.838 288.625C451.064 287.359 449.84 286.727 448.164 286.727C446.5 286.727 445.287 287.354 444.525 288.607C443.764 289.861 443.371 291.789 443.348 294.391V299.594C443.348 302.359 443.746 304.404 444.543 305.729C445.352 307.041 446.57 307.697 448.199 307.697C449.805 307.697 450.994 307.076 451.768 305.834C452.553 304.592 452.963 302.635 452.998 299.963V294.637ZM476.465 299.084C476.465 302.893 475.814 305.723 474.514 307.574C473.213 309.426 471.18 310.352 468.414 310.352C465.684 310.352 463.662 309.449 462.35 307.645C461.037 305.828 460.357 303.121 460.311 299.523V295.182C460.311 291.42 460.961 288.625 462.262 286.797C463.562 284.969 465.602 284.055 468.379 284.055C471.133 284.055 473.16 284.939 474.461 286.709C475.762 288.467 476.43 291.186 476.465 294.865V299.084ZM473.213 294.637C473.213 291.883 472.826 289.879 472.053 288.625C471.279 287.359 470.055 286.727 468.379 286.727C466.715 286.727 465.502 287.354 464.74 288.607C463.979 289.861 463.586 291.789 463.562 294.391V299.594C463.562 302.359 463.961 304.404 464.758 305.729C465.566 307.041 466.785 307.697 468.414 307.697C470.02 307.697 471.209 307.076 471.982 305.834C472.768 304.592 473.178 302.635 473.213 299.963V294.637Z" fill="#5E5A5A"/>
</svg>
