<svg width="1680" height="960" viewBox="0 0 1680 960" fill="none" xmlns="http://www.w3.org/2000/svg">
    <g clip-path="url(#clip0)">
        <path fill-rule="evenodd" clip-rule="evenodd" d="M0 0H1680V960H0V0Z" fill="#282753"/>
        <path fill-rule="evenodd" clip-rule="evenodd" d="M302.685 512.473V959.64H-33.6852V401H191.211C252.776 401 302.685 450.908 302.685 512.473Z" fill="#201F42"/>
        <path fill-rule="evenodd" clip-rule="evenodd" d="M314.108 869.381H317.489V866.001H314.108V869.381Z" fill="#51506C"/>
        <path fill-rule="evenodd" clip-rule="evenodd" d="M323.123 869.381H326.504V866.001H323.123V869.381Z" fill="#51506C"/>
        <path fill-rule="evenodd" clip-rule="evenodd" d="M332.139 869.381H335.519V866.001H332.139V869.381Z" fill="#51506C"/>
        <path fill-rule="evenodd" clip-rule="evenodd" d="M341.155 869.381H344.535V866.001H341.155V869.381Z" fill="#51506C"/>
        <path fill-rule="evenodd" clip-rule="evenodd" d="M350.17 869.381H353.55V866.001H350.17V869.381Z" fill="#51506C"/>
        <path fill-rule="evenodd" clip-rule="evenodd" d="M314.108 878.396H317.489V875.015H314.108V878.396Z" fill="#51506C"/>
        <path fill-rule="evenodd" clip-rule="evenodd" d="M323.124 878.396H326.505V875.015H323.124V878.396Z" fill="#51506C"/>
        <path fill-rule="evenodd" clip-rule="evenodd" d="M332.14 878.396H335.52V875.015H332.14V878.396Z" fill="#51506C"/>
        <path fill-rule="evenodd" clip-rule="evenodd" d="M341.154 878.396H344.535V875.015H341.154V878.396Z" fill="#51506C"/>
        <path fill-rule="evenodd" clip-rule="evenodd" d="M350.17 878.397H353.55V875.016H350.17V878.397Z" fill="#51506C"/>
        <path fill-rule="evenodd" clip-rule="evenodd" d="M314.108 887.412H317.489V884.031H314.108V887.412Z" fill="#51506C"/>
        <path fill-rule="evenodd" clip-rule="evenodd" d="M323.123 887.412H326.504V884.031H323.123V887.412Z" fill="#51506C"/>
        <path fill-rule="evenodd" clip-rule="evenodd" d="M332.139 887.412H335.519V884.031H332.139V887.412Z" fill="#51506C"/>
        <path fill-rule="evenodd" clip-rule="evenodd" d="M341.155 887.412H344.535V884.031H341.155V887.412Z" fill="#51506C"/>
        <path fill-rule="evenodd" clip-rule="evenodd" d="M350.17 887.412H353.55V884.031H350.17V887.412Z" fill="#51506C"/>
        <path fill-rule="evenodd" clip-rule="evenodd" d="M251 869.381H254.381V866.001H251V869.381Z" fill="#51506C"/>
        <path fill-rule="evenodd" clip-rule="evenodd" d="M260.015 869.381H263.395V866.001H260.015V869.381Z" fill="#51506C"/>
        <path fill-rule="evenodd" clip-rule="evenodd" d="M269.031 869.381H272.412V866.001H269.031V869.381Z" fill="#51506C"/>
        <path fill-rule="evenodd" clip-rule="evenodd" d="M278.047 869.381H281.427V866.001H278.047V869.381Z" fill="#51506C"/>
        <path fill-rule="evenodd" clip-rule="evenodd" d="M287.061 869.381H290.442V866.001H287.061V869.381Z" fill="#51506C"/>
        <path fill-rule="evenodd" clip-rule="evenodd" d="M251 878.397H254.381V875.016H251V878.397Z" fill="#51506C"/>
        <path fill-rule="evenodd" clip-rule="evenodd" d="M260.015 878.396H263.396V875.015H260.015V878.396Z" fill="#51506C"/>
        <path fill-rule="evenodd" clip-rule="evenodd" d="M269.031 878.396H272.412V875.015H269.031V878.396Z" fill="#51506C"/>
        <path fill-rule="evenodd" clip-rule="evenodd" d="M278.046 878.396H281.427V875.015H278.046V878.396Z" fill="#51506C"/>
        <path fill-rule="evenodd" clip-rule="evenodd" d="M287.061 878.396H290.442V875.015H287.061V878.396Z" fill="#51506C"/>
        <path fill-rule="evenodd" clip-rule="evenodd" d="M251 887.412H254.381V884.031H251V887.412Z" fill="#51506C"/>
        <path fill-rule="evenodd" clip-rule="evenodd" d="M260.015 887.412H263.395V884.031H260.015V887.412Z" fill="#51506C"/>
        <path fill-rule="evenodd" clip-rule="evenodd" d="M269.031 887.412H272.412V884.031H269.031V887.412Z" fill="#51506C"/>
        <path fill-rule="evenodd" clip-rule="evenodd" d="M278.047 887.412H281.427V884.031H278.047V887.412Z" fill="#51506C"/>
        <path fill-rule="evenodd" clip-rule="evenodd" d="M287.061 887.412H290.442V884.031H287.061V887.412Z" fill="#51506C"/>
        <path fill-rule="evenodd" clip-rule="evenodd" d="M296.077 869.381H299.457V866.001H296.077V869.381Z" fill="#51506C"/>
        <path fill-rule="evenodd" clip-rule="evenodd" d="M296.077 878.396H299.458V875.015H296.077V878.396Z" fill="#51506C"/>
        <path fill-rule="evenodd" clip-rule="evenodd" d="M305.093 878.396H308.473V875.015H305.093V878.396Z" fill="#51506C"/>
        <path fill-rule="evenodd" clip-rule="evenodd" d="M296.077 887.412H299.457V884.031H296.077V887.412Z" fill="#51506C"/>
        <path fill-rule="evenodd" clip-rule="evenodd" d="M305.093 887.412H308.473V884.031H305.093V887.412Z" fill="#51506C"/>
        <path fill-rule="evenodd" clip-rule="evenodd" d="M314.108 887.412H317.489V884.031H314.108V887.412Z" fill="#51506C"/>
        <path fill-rule="evenodd" clip-rule="evenodd" d="M314.108 869.381H317.489V866.001H314.108V869.381Z" fill="#51506C"/>
        <path fill-rule="evenodd" clip-rule="evenodd" d="M314.108 878.397H317.489V875.016H314.108V878.397Z" fill="#51506C"/>
        <path fill-rule="evenodd" clip-rule="evenodd" d="M305.093 869.381H308.473V866.001H305.093V869.381Z" fill="#51506C"/>
        <path fill-rule="evenodd" clip-rule="evenodd" d="M1330.13 111.135H1004.14C942.756 111.135 893 61.3779 893 0H1441.27C1441.27 61.3779 1391.51 111.135 1330.13 111.135" fill="#201F42"/>
        <path fill-rule="evenodd" clip-rule="evenodd" d="M1524.14 815H1679.72V960.217H1413V926.135C1413 864.756 1462.76 815 1524.14 815" fill="#201F42"/>
        <path fill-rule="evenodd" clip-rule="evenodd" d="M1385.62 119.108V122.489H1389V119.108H1385.62Z" fill="#51506C"/>
        <path fill-rule="evenodd" clip-rule="evenodd" d="M1385.62 128.123V131.504H1389V128.123H1385.62Z" fill="#51506C"/>
        <path fill-rule="evenodd" clip-rule="evenodd" d="M1385.62 137.139V140.519H1389V137.139H1385.62Z" fill="#51506C"/>
        <path fill-rule="evenodd" clip-rule="evenodd" d="M1385.62 146.155V149.535H1389V146.155H1385.62Z" fill="#51506C"/>
        <path fill-rule="evenodd" clip-rule="evenodd" d="M1385.62 155.17V158.55H1389V155.17H1385.62Z" fill="#51506C"/>
        <path fill-rule="evenodd" clip-rule="evenodd" d="M1376.6 119.108V122.489H1379.99V119.108H1376.6Z" fill="#51506C"/>
        <path fill-rule="evenodd" clip-rule="evenodd" d="M1376.6 128.124V131.505H1379.99V128.124H1376.6Z" fill="#51506C"/>
        <path fill-rule="evenodd" clip-rule="evenodd" d="M1376.6 137.14V140.52H1379.99V137.14H1376.6Z" fill="#51506C"/>
        <path fill-rule="evenodd" clip-rule="evenodd" d="M1376.6 146.154V149.535H1379.99V146.154H1376.6Z" fill="#51506C"/>
        <path fill-rule="evenodd" clip-rule="evenodd" d="M1376.6 155.17V158.55H1379.98V155.17H1376.6Z" fill="#51506C"/>
        <path fill-rule="evenodd" clip-rule="evenodd" d="M1367.59 119.108V122.489H1370.97V119.108H1367.59Z" fill="#51506C"/>
        <path fill-rule="evenodd" clip-rule="evenodd" d="M1367.59 128.123V131.504H1370.97V128.123H1367.59Z" fill="#51506C"/>
        <path fill-rule="evenodd" clip-rule="evenodd" d="M1367.59 137.139V140.519H1370.97V137.139H1367.59Z" fill="#51506C"/>
        <path fill-rule="evenodd" clip-rule="evenodd" d="M1367.59 146.155V149.535H1370.97V146.155H1367.59Z" fill="#51506C"/>
        <path fill-rule="evenodd" clip-rule="evenodd" d="M1367.59 155.17V158.55H1370.97V155.17H1367.59Z" fill="#51506C"/>
        <path fill-rule="evenodd" clip-rule="evenodd" d="M1385.62 56V59.381H1389V56H1385.62Z" fill="#51506C"/>
        <path fill-rule="evenodd" clip-rule="evenodd" d="M1385.62 65.015V68.395H1389V65.015H1385.62Z" fill="#51506C"/>
        <path fill-rule="evenodd" clip-rule="evenodd" d="M1385.62 74.031V77.412H1389V74.031H1385.62Z" fill="#51506C"/>
        <path fill-rule="evenodd" clip-rule="evenodd" d="M1385.62 83.047V86.427H1389V83.047H1385.62Z" fill="#51506C"/>
        <path fill-rule="evenodd" clip-rule="evenodd" d="M1385.62 92.061V95.442H1389V92.061H1385.62Z" fill="#51506C"/>
        <path fill-rule="evenodd" clip-rule="evenodd" d="M1376.6 56V59.381H1379.98V56H1376.6Z" fill="#51506C"/>
        <path fill-rule="evenodd" clip-rule="evenodd" d="M1376.6 65.015V68.396H1379.99V65.015H1376.6Z" fill="#51506C"/>
        <path fill-rule="evenodd" clip-rule="evenodd" d="M1376.6 74.031V77.412H1379.99V74.031H1376.6Z" fill="#51506C"/>
        <path fill-rule="evenodd" clip-rule="evenodd" d="M1376.6 83.046V86.427H1379.99V83.046H1376.6Z" fill="#51506C"/>
        <path fill-rule="evenodd" clip-rule="evenodd" d="M1376.6 92.061V95.442H1379.99V92.061H1376.6Z" fill="#51506C"/>
        <path fill-rule="evenodd" clip-rule="evenodd" d="M1367.59 56V59.381H1370.97V56H1367.59Z" fill="#51506C"/>
        <path fill-rule="evenodd" clip-rule="evenodd" d="M1367.59 65.015V68.395H1370.97V65.015H1367.59Z" fill="#51506C"/>
        <path fill-rule="evenodd" clip-rule="evenodd" d="M1367.59 74.031V77.412H1370.97V74.031H1367.59Z" fill="#51506C"/>
        <path fill-rule="evenodd" clip-rule="evenodd" d="M1367.59 83.047V86.427H1370.97V83.047H1367.59Z" fill="#51506C"/>
        <path fill-rule="evenodd" clip-rule="evenodd" d="M1367.59 92.061V95.442H1370.97V92.061H1367.59Z" fill="#51506C"/>
        <path fill-rule="evenodd" clip-rule="evenodd" d="M1385.62 101.077V104.457H1389V101.077H1385.62Z" fill="#51506C"/>
        <path fill-rule="evenodd" clip-rule="evenodd" d="M1376.6 101.077V104.458H1379.99V101.077H1376.6Z" fill="#51506C"/>
        <path fill-rule="evenodd" clip-rule="evenodd" d="M1376.6 110.093V113.473H1379.99V110.093H1376.6Z" fill="#51506C"/>
        <path fill-rule="evenodd" clip-rule="evenodd" d="M1367.59 101.077V104.457H1370.97V101.077H1367.59Z" fill="#51506C"/>
        <path fill-rule="evenodd" clip-rule="evenodd" d="M1367.59 110.093V113.473H1370.97V110.093H1367.59Z" fill="#51506C"/>
        <path fill-rule="evenodd" clip-rule="evenodd" d="M1367.59 119.108V122.489H1370.97V119.108H1367.59Z" fill="#51506C"/>
        <path fill-rule="evenodd" clip-rule="evenodd" d="M1385.62 119.108V122.489H1389V119.108H1385.62Z" fill="#51506C"/>
        <path fill-rule="evenodd" clip-rule="evenodd" d="M1376.6 119.108V122.489H1379.98V119.108H1376.6Z" fill="#51506C"/>
        <path fill-rule="evenodd" clip-rule="evenodd" d="M1385.62 110.093V113.473H1389V110.093H1385.62Z" fill="#51506C"/>
        <path d="M0 71H168.5C177.613 71 185 78.3873 185 87.5V87.5C185 96.6127 177.613 104 168.5 104H0V71Z" fill="#383760"/>
        <path d="M0 143H113.5C122.613 143 130 150.387 130 159.5V159.5C130 168.613 122.613 176 113.5 176H0V143Z" fill="#383760"/>
    </g>
    <defs>
        <clipPath id="clip0">
            <rect width="1680" height="960" fill="white"/>
        </clipPath>
    </defs>
</svg>
