<svg width="400" height="142" viewBox="0 0 400 142" fill="none" xmlns="http://www.w3.org/2000/svg">
<g clip-path="url(#clip0)">
<rect width="400" height="142" fill="#28304E"/>
<rect x="169" y="112" width="17" height="17" fill="#FA5E5E"/>
<rect x="368" y="112" width="17" height="17" fill="#FA5E5E"/>
<path d="M129 125.5C129 132.956 122.732 139 115 139C107.268 139 101 132.956 101 125.5C101 118.044 107.268 112 115 112C122.732 112 129 118.044 129 125.5ZM106.606 125.5C106.606 129.97 110.364 133.594 115 133.594C119.636 133.594 123.394 129.97 123.394 125.5C123.394 121.03 119.636 117.406 115 117.406C110.364 117.406 106.606 121.03 106.606 125.5Z" fill="#00CC99"/>
<path d="M356 57.5C356 64.9558 349.732 71 342 71C334.268 71 328 64.9558 328 57.5C328 50.0442 334.268 44 342 44C349.732 44 356 50.0442 356 57.5ZM333.606 57.5C333.606 61.9703 337.364 65.5941 342 65.5941C346.636 65.5941 350.394 61.9703 350.394 57.5C350.394 53.0297 346.636 49.4059 342 49.4059C337.364 49.4059 333.606 53.0297 333.606 57.5Z" fill="#00CC99"/>
<path d="M81 54L92.2583 60.75V74.25L81 81L69.7417 74.25V60.75L81 54Z" fill="#687AE8"/>
<rect x="137" y="18" width="17" height="17" fill="#FA5E5E"/>
<path d="M274.5 -13L289.655 14H259.345L274.5 -13Z" fill="#19B5FE"/>
<path d="M40 151.5C40 158.956 33.732 165 26 165C18.268 165 12 158.956 12 151.5C12 144.044 18.268 138 26 138C33.732 138 40 144.044 40 151.5ZM17.6061 151.5C17.6061 155.97 21.3642 159.594 26 159.594C30.6358 159.594 34.3939 155.97 34.3939 151.5C34.3939 147.03 30.6358 143.406 26 143.406C21.3642 143.406 17.6061 147.03 17.6061 151.5Z" fill="#00CC99"/>
<path d="M225.5 57L242.143 69.4377L235.786 89.5623H215.214L208.857 69.4377L225.5 57Z" fill="#F7BC06"/>
<path d="M21 22L32.2583 28.75V42.25L21 49L9.74167 42.25V28.75L21 22Z" fill="#687AE8"/>
<path d="M274.5 133L289.655 160H259.345L274.5 133Z" fill="#19B5FE"/>
</g>
<defs>
<clipPath id="clip0">
<rect width="400" height="142" fill="white"/>
</clipPath>
</defs>
</svg>
